<svg id="图层_1" data-name="图层 1" xmlns="http://www.w3.org/2000/svg" xmlns:xlink="http://www.w3.org/1999/xlink" viewBox="0 0 98.83 70"><defs><style>.cls-1{fill:url(#未命名的渐变_11);}.cls-2{fill:#30284f;}</style><linearGradient id="未命名的渐变_11" x1="49.13" y1="10.86" x2="70.86" y2="10.86" gradientUnits="userSpaceOnUse"><stop offset="0" stop-color="#a166ff"/><stop offset="1" stop-color="#7878ff"/></linearGradient></defs><title>Home_logo</title><path class="cls-1" d="M70.09,0H49.9a.77.77,0,0,0-.77.77V7.92a.77.77,0,0,0,.77.77H62.08a.08.08,0,0,1,.08.08V21a.77.77,0,0,0,.77.77h7.16a.77.77,0,0,0,.77-.77V.77A.77.77,0,0,0,70.09,0Z" transform="translate(-0.58 0)"/><path class="cls-2" d="M69.26,28.68h-27a.09.09,0,0,1-.09-.09V1.6A.77.77,0,0,0,40.93,1l-11.5,9.2a.77.77,0,0,0-.29.6V40.95a.77.77,0,0,0,.77.77H60.06a.77.77,0,0,0,.6-.29l9.2-11.5A.77.77,0,0,0,69.26,28.68Z" transform="translate(-0.58 0)"/><path class="cls-2" d="M3.42,53.72H1.12a.53.53,0,0,0-.53.53V69.47a.53.53,0,0,0,.53.53h9.56a.53.53,0,0,0,.53-.53V67.69a.53.53,0,0,0-.53-.53H4.48A.53.53,0,0,1,4,66.62V54.25A.53.53,0,0,0,3.42,53.72Z" transform="translate(-0.58 0)"/><path class="cls-2" d="M16.53,63h5a.53.53,0,0,0,.53-.53V60.7a.53.53,0,0,0-.53-.53h-5a.53.53,0,0,1-.53-.53V57.11a.53.53,0,0,1,.53-.53h6a.53.53,0,0,0,.53-.53V54.25a.53.53,0,0,0-.53-.53H13.16a.53.53,0,0,0-.53.53V69.47a.53.53,0,0,0,.53.53h9.46a.53.53,0,0,0,.53-.53V67.69a.53.53,0,0,0-.53-.53H16.53a.53.53,0,0,1-.53-.53V63.56A.53.53,0,0,1,16.53,63Z" transform="translate(-0.58 0)"/><path class="cls-2" d="M33.24,62.4,28.05,54a.53.53,0,0,0-.45-.25H25.24a.53.53,0,0,0-.53.53V69.47a.53.53,0,0,0,.53.53h2.3a.53.53,0,0,0,.53-.53V61.6a.53.53,0,0,1,1-.28l5.18,8.43a.53.53,0,0,0,.45.25h2.36a.53.53,0,0,0,.53-.53V54.25a.53.53,0,0,0-.53-.53h-2.3a.53.53,0,0,0-.53.53v7.87A.53.53,0,0,1,33.24,62.4Z" transform="translate(-0.58 0)"/><path class="cls-2" d="M45.58,53.72h-5a.53.53,0,0,0-.53.53V69.47a.53.53,0,0,0,.53.53h5a6.92,6.92,0,0,0,5.07-1.94,6.79,6.79,0,0,0,2-5V60.69a6.81,6.81,0,0,0-2-5A6.9,6.9,0,0,0,45.58,53.72Zm-2.14,3.39a.53.53,0,0,1,.53-.53h1.61a3.32,3.32,0,0,1,2.67,1.13,4.38,4.38,0,0,1,1,3V63a4.41,4.41,0,0,1-1,3,3.32,3.32,0,0,1-2.67,1.13H44a.53.53,0,0,1-.53-.53Z" transform="translate(-0.58 0)"/><path class="cls-2" d="M63.76,60.53H58.58A.53.53,0,0,1,58,60V57.11a.53.53,0,0,1,.53-.53h6.27a.53.53,0,0,0,.53-.53V54.25a.53.53,0,0,0-.53-.53H55.21a.53.53,0,0,0-.53.53V69.47a.53.53,0,0,0,.53.53h2.3a.53.53,0,0,0,.53-.53V63.92a.53.53,0,0,1,.53-.53h5.18a.53.53,0,0,0,.53-.53V61.07A.53.53,0,0,0,63.76,60.53Z" transform="translate(-0.58 0)"/><rect class="cls-2" x="63.25" y="66.74" width="3.36" height="3.26" rx="0.53" ry="0.53"/><path class="cls-2" d="M77.7,63.67l-3.59-9.61a.53.53,0,0,0-.5-.35H70.46a.53.53,0,0,0-.53.53V69.47a.53.53,0,0,0,.53.53h2.3a.53.53,0,0,0,.53-.53V63.08a.53.53,0,0,1,1-.19l2.59,6.77a.53.53,0,0,0,.5.34H79a.53.53,0,0,0,.5-.34L82,63.09a.53.53,0,0,1,1,.19v6.18a.53.53,0,0,0,.53.53h2.3a.53.53,0,0,0,.53-.53V54.25a.53.53,0,0,0-.53-.53H82.81a.53.53,0,0,0-.5.35L78.7,63.67A.53.53,0,0,1,77.7,63.67Z" transform="translate(-0.58 0)"/><path class="cls-2" d="M92.26,66.62V63.56a.53.53,0,0,1,.53-.53h5a.53.53,0,0,0,.53-.53V60.7a.53.53,0,0,0-.53-.53h-5a.53.53,0,0,1-.53-.53V57.11a.53.53,0,0,1,.53-.53h6a.53.53,0,0,0,.53-.53V54.25a.53.53,0,0,0-.53-.53H89.43a.53.53,0,0,0-.53.53V69.47a.53.53,0,0,0,.53.53h9.46a.53.53,0,0,0,.53-.53V67.69a.53.53,0,0,0-.53-.53H92.79A.53.53,0,0,1,92.26,66.62Z" transform="translate(-0.58 0)"/></svg>